<?xml version="1.0" encoding="iso-8859-1"?>
<!-- Uploaded to: SVG Repo, www.svgrepo.com, Generator: SVG Repo Mixer Tools -->
<!DOCTYPE svg PUBLIC "-//W3C//DTD SVG 1.1//EN" "http://www.w3.org/Graphics/SVG/1.1/DTD/svg11.dtd">
<svg fill="#000000" height="800px" width="800px" version="1.1" id="Capa_1" xmlns="http://www.w3.org/2000/svg" xmlns:xlink="http://www.w3.org/1999/xlink" 
	 viewBox="0 0 477.133 477.133" xml:space="preserve">
<g>
	<path d="M436.094,112.841H240.87v29.896c0,0.774-0.153,1.521-0.203,2.268h195.427c4.889,0,8.878,3.971,8.878,8.875V388.31
		c0,4.901-3.989,8.873-8.878,8.873H129.301c-4.884,0-8.871-3.972-8.871-8.873v-39.315c-5.338,1.476-10.861,2.526-16.681,2.526
		c-5.383,0-10.504-0.882-15.484-2.153v38.942c0,22.635,18.419,41.036,41.036,41.036h306.793c22.624,0,41.039-18.401,41.039-41.036
		V153.879C477.133,131.24,458.718,112.841,436.094,112.841z"/>
	<path d="M134.577,288.547V99.344h44.497l19.456,45.488c0.836,1.97,2.81,3.212,4.898,3.212c0.347,0,0.687-0.029,1.027-0.108
		c2.482-0.513,4.252-2.686,4.252-5.199v-79.76c0-8.396-6.81-15.189-15.189-15.189H15.176C6.797,47.787,0,54.58,0,62.977v79.746
		c0,2.527,1.768,4.7,4.235,5.197c0.357,0.095,0.714,0.124,1.071,0.124c2.078,0,4.018-1.225,4.872-3.225l19.452-45.475h43.288
		v189.203c0,17.004,13.808,30.813,30.83,30.813C120.769,319.359,134.577,305.551,134.577,288.547z"/>
</g>
</svg>