<?xml version="1.0" encoding="UTF-8" standalone="no"?>
<!-- Created with Inkscape (http://www.inkscape.org/) -->

<svg
   width="1920"
   height="1080"
   viewBox="0 0 1920 1080"
   version="1.1"
   id="svg5"
   inkscape:version="1.2.2 (b0a8486541, 2022-12-01)"
   sodipodi:docname="List1.svg"
   xml:space="preserve"
   xmlns:inkscape="http://www.inkscape.org/namespaces/inkscape"
   xmlns:sodipodi="http://sodipodi.sourceforge.net/DTD/sodipodi-0.dtd"
   xmlns="http://www.w3.org/2000/svg"
   xmlns:svg="http://www.w3.org/2000/svg"><sodipodi:namedview
     id="namedview7"
     pagecolor="#ffffff"
     bordercolor="#111111"
     borderopacity="1"
     inkscape:showpageshadow="0"
     inkscape:pageopacity="0"
     inkscape:pagecheckerboard="1"
     inkscape:deskcolor="#d1d1d1"
     inkscape:document-units="px"
     showgrid="false"
     inkscape:zoom="0.70710678"
     inkscape:cx="807.51594"
     inkscape:cy="255.97265"
     inkscape:window-width="1280"
     inkscape:window-height="964"
     inkscape:window-x="0"
     inkscape:window-y="28"
     inkscape:window-maximized="1"
     inkscape:current-layer="layer1" /><defs
     id="defs2"><style
       id="style18646">
      .cls-1 {
        fill: none;
      }
    </style></defs><g
     inkscape:label="Background"
     inkscape:groupmode="layer"
     id="layer1"><rect
       style="fill:#ededed;stroke-width:1.717;fill-opacity:1"
       id="rect234"
       width="1920"
       height="1080"
       x="0"
       y="0" /><text
       xml:space="preserve"
       style="font-weight:bold;font-size:44.7239px;font-family:Carlito;-inkscape-font-specification:'Carlito, Bold';text-align:center;text-anchor:middle;fill:#000000;fill-opacity:1;stroke:#010101;stroke-width:2.50789;stroke-dasharray:none;stroke-opacity:1"
       x="1019.6262"
       y="117.73918"
       id="text20051"
       transform="scale(0.94064511,1.0631002)"><tspan
         sodipodi:role="line"
         id="tspan20049"
         x="1019.6262"
         y="117.73918"
         style="stroke-width:2.50789">Menu Items</tspan></text></g><g
     inkscape:groupmode="layer"
     id="layer4"
     inkscape:label="Sheet"
     transform="translate(7.5141716,45.608671)"><rect
       style="fill:#ffffff;fill-opacity:1;stroke:#808080;stroke-width:1.4607;stroke-dasharray:none;stroke-opacity:1"
       id="rect18794"
       width="1757.7157"
       height="274.16895"
       x="91.294365"
       y="108.64056"
       ry="12.427246"
       rx="12.626612" /><text
       xml:space="preserve"
       style="font-weight:bold;font-size:26.6667px;font-family:Carlito;-inkscape-font-specification:'Carlito, Bold';text-align:center;text-anchor:middle;fill:#000000;fill-opacity:1;stroke:none;stroke-width:2"
       x="260.78613"
       y="198.63512"
       id="text2010-2"><tspan
         sodipodi:role="line"
         id="tspan2008-7"
         x="260.78613"
         y="198.63512">Hawaiian Pizza</tspan></text><text
       xml:space="preserve"
       style="font-weight:bold;font-size:26.6667px;font-family:Carlito;-inkscape-font-specification:'Carlito, Bold';text-align:center;text-anchor:middle;fill:#000000;fill-opacity:1;stroke:none;stroke-width:2"
       x="218.12982"
       y="239.31323"
       id="text2010-2-0"><tspan
         sodipodi:role="line"
         id="tspan2008-7-9"
         x="218.12982"
         y="239.31323">Egg Pie</tspan></text><text
       xml:space="preserve"
       style="font-weight:bold;font-size:26.6667px;font-family:Carlito;-inkscape-font-specification:'Carlito, Bold';text-align:center;text-anchor:middle;fill:#000000;fill-opacity:1;stroke:none;stroke-width:2"
       x="249.38385"
       y="281.56964"
       id="text2010-2-0-3"><tspan
         sodipodi:role="line"
         id="tspan2008-7-9-6"
         x="249.38385"
         y="281.56964">Bicol Express</tspan></text><text
       xml:space="preserve"
       style="font-weight:bold;font-size:26.6667px;font-family:Carlito;-inkscape-font-specification:'Carlito, Bold';text-align:center;text-anchor:middle;fill:#000000;fill-opacity:1;stroke:none;stroke-width:2"
       x="223.823"
       y="323.95599"
       id="text2010-2-0-3-0"><tspan
         sodipodi:role="line"
         id="tspan2008-7-9-6-6"
         x="223.823"
         y="323.95599">Iced Tea</tspan></text><path
       style="fill:#ffffff;fill-opacity:1;stroke:#808080;stroke-width:0.68662;stroke-dasharray:none;stroke-opacity:1"
       d="m 166.62067,108.72199 -0.97558,274.81664"
       id="path19180" /><path
       style="fill:#ffffff;fill-opacity:1;stroke:#808080;stroke-width:0.681554;stroke-dasharray:none;stroke-opacity:1"
       d="m 485.87003,109.0354 -0.96634,273.7741"
       id="path19180-6" /><path
       style="fill:#ffffff;fill-opacity:1;stroke:#808080;stroke-width:0.502697;stroke-dasharray:none;stroke-opacity:1"
       d="m 1160.9445,109.03143 -0.524,274.66694"
       id="path19180-6-7" /><path
       style="fill:#ffffff;fill-opacity:1;stroke:#808080;stroke-width:0.499618;stroke-dasharray:none;stroke-opacity:1"
       d="m 1554.9876,109.02945 -0.5201,273.39116"
       id="path19180-6-7-5" /><text
       xml:space="preserve"
       style="font-style:normal;font-variant:normal;font-weight:bold;font-stretch:normal;font-size:26.6667px;font-family:Carlito;-inkscape-font-specification:'Carlito, Bold';font-variant-ligatures:normal;font-variant-caps:normal;font-variant-numeric:normal;font-variant-east-asian:normal;text-align:center;text-anchor:middle;fill:#000000;fill-opacity:1;stroke:none;stroke-width:2.243;stroke-dasharray:none;stroke-opacity:1"
       x="129.48167"
       y="147.19582"
       id="text20592"><tspan
         sodipodi:role="line"
         id="tspan20646"
         x="129.48167"
         y="147.19582">ID</tspan></text><text
       xml:space="preserve"
       style="font-style:normal;font-variant:normal;font-weight:bold;font-stretch:normal;font-size:26.6667px;font-family:Carlito;-inkscape-font-specification:'Carlito, Bold';font-variant-ligatures:normal;font-variant-caps:normal;font-variant-numeric:normal;font-variant-east-asian:normal;text-align:center;text-anchor:middle;fill:#000000;fill-opacity:1;stroke:none;stroke-width:2.243;stroke-dasharray:none;stroke-opacity:1"
       x="304.4183"
       y="147.19582"
       id="text20592-0"><tspan
         sodipodi:role="line"
         id="tspan20646-6"
         x="304.4183"
         y="147.19582">NAME</tspan></text><text
       xml:space="preserve"
       style="font-style:normal;font-variant:normal;font-weight:bold;font-stretch:normal;font-size:26.6667px;font-family:Carlito;-inkscape-font-specification:'Carlito, Bold';font-variant-ligatures:normal;font-variant-caps:normal;font-variant-numeric:normal;font-variant-east-asian:normal;text-align:center;text-anchor:middle;fill:#000000;fill-opacity:1;stroke:none;stroke-width:2.243;stroke-dasharray:none;stroke-opacity:1"
       x="820.3714"
       y="147.01352"
       id="text20592-0-5"><tspan
         sodipodi:role="line"
         id="tspan20646-6-4"
         x="820.3714"
         y="147.01352">DESCRIPTION</tspan></text><text
       xml:space="preserve"
       style="font-style:normal;font-variant:normal;font-weight:bold;font-stretch:normal;font-size:26.6667px;font-family:Carlito;-inkscape-font-specification:'Carlito, Bold';font-variant-ligatures:normal;font-variant-caps:normal;font-variant-numeric:normal;font-variant-east-asian:normal;text-align:center;text-anchor:middle;fill:#000000;fill-opacity:1;stroke:none;stroke-width:2.243;stroke-dasharray:none;stroke-opacity:1"
       x="1357.0287"
       y="147.01352"
       id="text20592-0-5-7"><tspan
         sodipodi:role="line"
         id="tspan20646-6-4-6"
         x="1357.0287"
         y="147.01352">IMAGE</tspan></text><text
       xml:space="preserve"
       style="font-style:normal;font-variant:normal;font-weight:bold;font-stretch:normal;font-size:26.6667px;font-family:Carlito;-inkscape-font-specification:'Carlito, Bold';font-variant-ligatures:normal;font-variant-caps:normal;font-variant-numeric:normal;font-variant-east-asian:normal;text-align:center;text-anchor:middle;fill:#000000;fill-opacity:1;stroke:none;stroke-width:2.243;stroke-dasharray:none;stroke-opacity:1"
       x="1707.1244"
       y="147.01352"
       id="text20592-0-5-7-5"><tspan
         sodipodi:role="line"
         id="tspan20646-6-4-6-6"
         x="1707.1244"
         y="147.01352">PRICE</tspan></text><path
       style="fill:#000000;fill-opacity:1;stroke:#808080;stroke-width:0.912792;stroke-dasharray:none;stroke-opacity:1"
       d="M 91.554131,210.40345 H 1848.4394"
       id="path21056" /><path
       style="fill:#000000;fill-opacity:1;stroke:#808080;stroke-width:0.91287;stroke-dasharray:none;stroke-opacity:1"
       d="M 91.554131,252.29979 H 1848.7404"
       id="path21056-3" /><path
       style="fill:#000000;fill-opacity:1;stroke:#808080;stroke-width:0.91287;stroke-dasharray:none;stroke-opacity:1"
       d="M 91.554131,294.19613 H 1848.7403"
       id="path21056-3-7" /><path
       style="fill:#000000;fill-opacity:1;stroke:#808080;stroke-width:0.91287;stroke-dasharray:none;stroke-opacity:1"
       d="M 91.554131,336.09247 H 1848.7404"
       id="path21056-3-7-4" /><path
       style="fill:#000000;fill-opacity:1;stroke:#808080;stroke-width:2.00149;stroke-dasharray:none;stroke-opacity:1"
       d="M 91.294365,166.21824 H 1849.7404"
       id="path21202" /><path
       d="m 52.471346,191.61301 h 9.878131 v -2.46908 h -9.878131 z m 4.939065,8.64177 c -5.44779,0 -9.878132,-4.43076 -9.878132,-9.87631 0,-5.44678 4.430342,-9.87632 9.878132,-9.87632 5.446555,0 9.878131,4.42954 9.878131,9.87632 0,5.44555 -4.431576,9.87631 -9.878131,9.87631 z m 0,-22.2217 c -6.819616,0 -12.347664,5.52703 -12.347664,12.34539 0,6.81836 5.528048,12.34539 12.347664,12.34539 6.818379,0 12.347664,-5.52703 12.347664,-12.34539 0,-6.81836 -5.529285,-12.34539 -12.347664,-12.34539 z"
       id="minus_circle-[#1442]"
       style="fill:#ff1a1a;fill-opacity:1;fill-rule:evenodd;stroke:none;stroke-width:1.2049" /><path
       d="m 52.471346,233.38409 h 9.878131 v -2.46908 h -9.878131 z m 4.939065,8.64177 c -5.44779,0 -9.878132,-4.43076 -9.878132,-9.87631 0,-5.44678 4.430342,-9.87632 9.878132,-9.87632 5.446555,0 9.878131,4.42954 9.878131,9.87632 0,5.44555 -4.431576,9.87631 -9.878131,9.87631 z m 0,-22.2217 c -6.819616,0 -12.347664,5.52703 -12.347664,12.34539 0,6.81836 5.528048,12.34539 12.347664,12.34539 6.818379,0 12.347664,-5.52703 12.347664,-12.34539 0,-6.81836 -5.529285,-12.34539 -12.347664,-12.34539 z"
       id="minus_circle-[#1442]-3"
       style="fill:#ff1a1a;fill-opacity:1;fill-rule:evenodd;stroke:none;stroke-width:1.2049" /><path
       d="m 52.471346,275.15516 h 9.878131 v -2.46908 h -9.878131 z m 4.939065,8.64177 c -5.44779,0 -9.878132,-4.43076 -9.878132,-9.87631 0,-5.44678 4.430342,-9.87632 9.878132,-9.87632 5.446555,0 9.878131,4.42954 9.878131,9.87632 0,5.44555 -4.431576,9.87631 -9.878131,9.87631 z m 0,-22.2217 c -6.819616,0 -12.347664,5.52703 -12.347664,12.34539 0,6.81836 5.528048,12.34539 12.347664,12.34539 6.818379,0 12.347664,-5.52703 12.347664,-12.34539 0,-6.81836 -5.529285,-12.34539 -12.347664,-12.34539 z"
       id="minus_circle-[#1442]-3-6"
       style="fill:#ff1a1a;fill-opacity:1;fill-rule:evenodd;stroke:none;stroke-width:1.2049" /><path
       d="m 52.471346,316.92623 h 9.878131 v -2.46908 h -9.878131 z m 4.939065,8.64177 c -5.44779,0 -9.878132,-4.43076 -9.878132,-9.87631 0,-5.44678 4.430342,-9.87632 9.878132,-9.87632 5.446555,0 9.878131,4.42954 9.878131,9.87632 0,5.44555 -4.431576,9.87631 -9.878131,9.87631 z m 0,-22.2217 c -6.819616,0 -12.347664,5.52703 -12.347664,12.34539 0,6.81836 5.528048,12.34539 12.347664,12.34539 6.818379,0 12.347664,-5.52703 12.347664,-12.34539 0,-6.81836 -5.529285,-12.34539 -12.347664,-12.34539 z"
       id="minus_circle-[#1442]-3-7"
       style="fill:#ff1a1a;fill-opacity:1;fill-rule:evenodd;stroke:none;stroke-width:1.2049" /><text
       xml:space="preserve"
       style="font-weight:bold;font-size:26.6667px;font-family:Carlito;-inkscape-font-specification:'Carlito, Bold';text-align:center;text-anchor:middle;fill:#000000;fill-opacity:1;stroke:none;stroke-width:2"
       x="129.70303"
       y="197.24188"
       id="text2010"><tspan
         sodipodi:role="line"
         id="tspan2008"
         x="129.70303"
         y="197.24188">1</tspan></text><text
       xml:space="preserve"
       style="font-weight:bold;font-size:26.6667px;font-family:Carlito;-inkscape-font-specification:'Carlito, Bold';text-align:center;text-anchor:middle;fill:#000000;fill-opacity:1;stroke:none;stroke-width:2"
       x="129.70303"
       y="240.88275"
       id="text2010-3"><tspan
         sodipodi:role="line"
         id="tspan2008-5"
         x="129.70303"
         y="240.88275">2</tspan></text><text
       xml:space="preserve"
       style="font-weight:bold;font-size:26.6667px;font-family:Carlito;-inkscape-font-specification:'Carlito, Bold';text-align:center;text-anchor:middle;fill:#000000;fill-opacity:1;stroke:none;stroke-width:2"
       x="129.70303"
       y="281.20383"
       id="text2010-3-6"><tspan
         sodipodi:role="line"
         id="tspan2008-5-2"
         x="129.70303"
         y="281.20383">3</tspan></text><text
       xml:space="preserve"
       style="font-weight:bold;font-size:26.6667px;font-family:Carlito;-inkscape-font-specification:'Carlito, Bold';text-align:center;text-anchor:middle;fill:#000000;fill-opacity:1;stroke:none;stroke-width:2"
       x="129.56631"
       y="324.49313"
       id="text2010-3-6-9"><tspan
         sodipodi:role="line"
         id="tspan2008-5-2-1"
         x="129.56631"
         y="324.49313">4</tspan></text><path
       d="m 130.67653,358.42283 h 3.67442 v 2.42049 h -3.67442 v 3.63073 h -2.44962 v -3.63073 h -3.67441 v -2.42049 h 3.67441 v -3.63074 h 2.44962 z m -1.22481,10.8922 c -5.40262,0 -9.79846,-4.34357 -9.79846,-9.68196 0,-5.33839 4.39584,-9.68196 9.79846,-9.68196 5.40263,0 9.79846,4.34357 9.79846,9.68196 0,5.33839 -4.39583,9.68196 -9.79846,9.68196 z m 0,-21.78441 c -6.76462,0 -12.24807,5.41827 -12.24807,12.10245 0,6.68419 5.48345,12.10246 12.24807,12.10246 6.7646,0 12.24807,-5.41827 12.24807,-12.10246 0,-6.68418 -5.48347,-12.10245 -12.24807,-12.10245 z"
       id="plus_circle-[#1441]"
       style="fill:#16ca07;fill-rule:evenodd;stroke:none;stroke-width:1.18817;fill-opacity:1" /></g><g
     inkscape:groupmode="layer"
     id="layer2"
     inkscape:label="Top Bar"
     style="display:inline"><rect
       style="display:inline;fill:#e8e8e8;fill-opacity:1;stroke:#808080;stroke-width:1.204;stroke-dasharray:none;stroke-dashoffset:0;stroke-opacity:1"
       id="rect111"
       width="1918.8077"
       height="65.614212"
       x="0.59613037"
       y="0" /><rect
       style="display:inline;opacity:0.900426;fill:#ffffff;fill-opacity:1;stroke:#000000;stroke-width:1.45887;stroke-linecap:square;stroke-linejoin:miter;stroke-miterlimit:24;stroke-dasharray:0.364716, 0.364716;stroke-dashoffset:0;stroke-opacity:0.404326"
       id="rect346-8-1-2-9-3-0-9-6-3-3"
       width="95.995804"
       height="51.635921"
       x="173.39854"
       y="7.5896788"
       ry="13.397397" /><g
       style="display:inline;fill:#000000"
       id="g615"
       transform="matrix(0.14451404,0,0,0.15124652,184.39814,-5.3112667)"><g
         id="g587">
	<g
   id="g585">
		<rect
   y="182.85699"
   width="146.286"
   height="146.286"
   id="rect583"
   x="0" />
	</g>
</g><g
         id="g593">
	<g
   id="g591">
		<rect
   x="182.85699"
   y="182.85699"
   width="146.286"
   height="146.286"
   id="rect589" />
	</g>
</g><g
         id="g599">
	<g
   id="g597">
		<rect
   x="365.71399"
   y="182.85699"
   width="146.286"
   height="146.286"
   id="rect595" />
	</g>
</g></g><rect
       style="display:inline;opacity:0.900426;fill:#ffffff;fill-opacity:1;stroke:#000000;stroke-width:1.21131;stroke-linecap:square;stroke-linejoin:miter;stroke-miterlimit:24;stroke-dasharray:0.302827, 0.302827;stroke-dashoffset:0;stroke-opacity:0.404326"
       id="rect346-8-1-3"
       width="65.857101"
       height="51.889614"
       x="6.466795"
       y="6.8643045"
       ry="13.463221" /><g
       style="fill:#000000"
       id="g18671"
       transform="matrix(1.0658252,0,0,1.0627681,22.340724,15.802816)"><circle
         cx="7"
         cy="7"
         r="1"
         id="circle18650" /><circle
         cx="7"
         cy="15"
         r="1"
         id="circle18652" /><circle
         cx="7"
         cy="23"
         r="1"
         id="circle18654" /><path
         d="M 12,26 H 4 v -6 h 8 V 18 H 4 V 12 H 22 V 4 A 2,2 0 0 0 20,2 H 4 A 2,2 0 0 0 2,4 v 22 a 2,2 0 0 0 2,2 h 8 z M 4,4 h 16 v 6 H 4 Z"
         id="path18656" /><path
         d="m 28,17 v 2.4131 A 6.996,6.996 0 1 0 22,30 v -2 a 5,5 0 1 1 4.5762,-7 H 24 v 2 h 6 v -6 z"
         id="path18658" /><rect
         id="_Transparent_Rectangle_"
         data-name="&lt;Transparent Rectangle&gt;"
         class="cls-1"
         width="32"
         height="32"
         x="0"
         y="0" /></g><rect
       style="display:inline;opacity:0.900426;fill:#ffffff;fill-opacity:1;stroke:#000000;stroke-width:1.21131;stroke-linecap:square;stroke-linejoin:miter;stroke-miterlimit:24;stroke-dasharray:0.302827, 0.302827;stroke-dashoffset:0;stroke-opacity:0.404326"
       id="rect346-8-1"
       width="65.857101"
       height="51.889614"
       x="98.701485"
       y="7.4688668"
       ry="13.463221" /><path
       style="display:inline;opacity:0.900426;fill:#ffffff;fill-opacity:1;stroke:#000000;stroke-width:1.205;stroke-linecap:square;stroke-linejoin:miter;stroke-miterlimit:24;stroke-dasharray:1.205, 4.82;stroke-dashoffset:0;stroke-opacity:0.404326"
       d="M 85.578924,0.60740167 C 85.382624,22.676122 85.449424,44.751278 85.449424,66.823336"
       id="path5529-5-5" /><g
       style="fill:none"
       id="g18441"
       transform="matrix(1.5609241,0,0,1.5618997,112.89762,14.665045)"><path
         d="M 5.57489,2.07403 C 5.83474,2.19892 6,2.4617 6,2.75001 6,3.57985 6.31211,4.05763 6.70313,4.63948 L 6.73156,4.68175 C 7.0641,5.17579 7.5,5.8234 7.5,6.75001 7.5,7.69552 7.02282,8.52959 6.29615,9.02452 6.48733,9.1848 6.65672,9.38248 6.80225,9.61803 7.27801,10.388 7.5,11.5645 7.5,13.2549 7.5,14.967 7.27003,17.023 6.89541,18.6644 6.70914,19.4806 6.47843,20.2335 6.20272,20.7994 6.06598,21.08 5.89948,21.3541 5.69217,21.5685 5.48714,21.7804 5.17035,22.0049 4.75,22.0049 4.32965,22.0049 4.01286,21.7804 3.80783,21.5685 3.60052,21.3541 3.43402,21.08 3.29728,20.7994 3.02157,20.2335 2.79086,19.4806 2.60459,18.6644 2.22997,17.023 2,14.967 2,13.2549 2,11.5645 2.22199,10.388 2.69775,9.61803 2.84328,9.38248 3.01267,9.1848 3.20385,9.02452 2.47718,8.52959 2,7.69552 2,6.75001 2,6.38181 2.00034,5.74889 2.38341,4.93168 2.75829,4.13192 3.47066,3.21301 4.78148,2.16436 5.00661,1.98425 5.31504,1.94914 5.57489,2.07403 Z"
         fill="#212121"
         id="path18429" /><path
         d="M 9.99994,14.917 C 9.46162,14.8267 8.94761,14.6647 8.46806,14.4412 8.48904,14.0349 8.49994,13.637 8.49994,13.2549 c 0,-0.4058 -0.01201,-0.7939 -0.03843,-1.1634 0.44314,0.3643 0.96599,0.6351 1.53843,0.7825 V 10.5 C 9.99994,9.67157 10.6715,9 11.4999,9 h 3.5 c 0,-2.20914 -1.7908,-4 -4,-4 C 10.0146,5 9.11251,5.35626 8.4154,5.94699 8.24173,5.13337 7.83957,4.53662 7.58275,4.15554 L 7.54248,4.09572 C 8.51976,3.40549 9.7125,3 10.9999,3 c 3.3137,0 6,2.68629 6,6 h 3.5 c 0.8285,0 1.5,0.67157 1.5,1.5 v 9 c 0,0.8284 -0.6715,1.5 -1.5,1.5 h -9 C 10.6715,21 9.99994,20.3284 9.99994,19.5 Z m 1.99996,0 V 19 h 8 v -8 h -3.3414 c -0.7162,2.0265 -2.4902,3.5533 -4.6586,3.917 z M 14.4648,11 h -2.4649 v 1.874 C 13.0508,12.6035 13.9345,11.9168 14.4648,11 Z"
         fill="#212121"
         id="path18431" /></g><rect
       style="display:inline;opacity:0.900426;fill:#0d6efd;fill-opacity:1;stroke:none;stroke-width:1.92439;stroke-linecap:square;stroke-linejoin:miter;stroke-miterlimit:24;stroke-dasharray:0.481096, 0.481096;stroke-dashoffset:0;stroke-opacity:0.404326"
       id="rect346-8-1-2-9-3-0-9-6"
       width="168.56612"
       height="51.166706"
       x="1744.0144"
       y="7.2262297"
       ry="25.583353" /><path
       d="m 1774.0515,24.948433 c 0,-0.722996 0.7311,-1.309777 1.6318,-1.309777 0.9008,0 1.6319,0.586781 1.6319,1.309777 0,0.723002 -0.7311,1.309783 -1.6319,1.309783 -0.9007,0 -1.6318,-0.586781 -1.6318,-1.309783 z m 18.1542,17.027123 c 0,0.722996 -0.7311,1.309778 -1.6318,1.309778 h -1.6319 v -5.239111 c 0,-1.447309 -1.4605,-2.619561 -3.2636,-2.619561 h -13.0547 c -1.8032,0 -3.2637,1.172252 -3.2637,2.619561 v 5.239111 h -1.6318 c -0.9008,0 -1.6319,-0.586782 -1.6319,-1.309778 V 28.9354 c 0,-0.1742 0.086,-0.340538 0.2383,-0.462352 l 3.0254,-2.428326 v 1.523272 c 0,1.447304 1.4605,2.619556 3.2636,2.619556 h 13.0548 c 1.8031,0 3.2636,-1.172252 3.2636,-2.619556 v -5.239116 h 1.6319 c 0.9007,0 1.6318,0.586782 1.6318,1.309778 z m -6.5273,1.309778 h -13.0547 v -3.929333 c 0,-0.723002 0.731,-1.309778 1.6318,-1.309778 h 9.791 c 0.9008,0 1.6319,0.586776 1.6319,1.309778 z m -13.0547,-19.860168 1.3658,-1.096288 h 11.6889 v 3.929338 c 0,0.722996 -0.7311,1.309778 -1.6319,1.309778 h -9.791 c -0.9008,0 -1.6319,-0.586782 -1.6319,-1.309778 z m 19.582,-3.715844 h -18.9065 c -0.4324,0 -0.8469,0.137526 -1.1537,0.383764 l -8.8347,7.091138 c -0.3068,0.246239 -0.4782,0.578924 -0.4782,0.926014 v 15.175096 c 0,1.447304 1.4605,2.619556 3.2637,2.619556 h 26.1094 c 1.8032,0 3.2637,-1.172252 3.2637,-2.619556 V 22.328878 c 0,-1.447304 -1.4605,-2.619556 -3.2637,-2.619556 z"
       id="save_item-[#1411]"
       style="display:inline;fill:#ffffff;fill-opacity:1;fill-rule:evenodd;stroke:none;stroke-width:1.42673" /><text
       xml:space="preserve"
       style="font-weight:bold;font-size:40px;font-family:Carlito;-inkscape-font-specification:'Carlito, Bold';text-align:center;text-anchor:middle;fill:#ffffff;fill-opacity:1;stroke:#ffffff;stroke-width:1.204;stroke-dasharray:none;stroke-opacity:1"
       x="1848.7589"
       y="45.779797"
       id="text14147"><tspan
         sodipodi:role="line"
         id="tspan14145"
         x="1848.7589"
         y="45.779797">Save</tspan></text></g></svg>
